<svg width="21.000000" height="16.986816" viewBox="0 0 21 16.9868" fill="none" xmlns="http://www.w3.org/2000/svg" xmlns:xlink="http://www.w3.org/1999/xlink">
	<desc>
			Created with Pixso.
	</desc>
	<defs/>
	<path id="Vector" d="M17.9316 1.01147C16.6051 0.360352 15.4547 0.287842 13.9675 0.0129395C13.9404 0.0078125 12.9904 -0.0134277 12.9764 0.0129395C12.7935 0.361084 13.1182 0.654541 12.9764 1.01147C11.3768 0.755371 9.58807 0.755371 8.02127 1.01147C7.87933 0.646484 8.20502 0.361084 8.02127 0.0129395C8.00732 -0.0126953 7.05734 0.00854492 7.03024 0.0129395C5.54382 0.286865 4.3934 0.359375 3.06613 1.01147C0.368073 5.32446 -0.269562 9.83643 0.0930176 13.9915C1.87314 15.3901 3.35587 16.4238 5.04819 16.9868C5.44849 16.4019 6.72427 15.6384 7.03024 14.99C7.04831 14.9519 6.07611 15.0049 6.03922 14.99C5.47321 14.7603 5.56662 14.3096 5.04819 13.9915C8.4541 15.6553 12.5838 15.6553 15.9495 13.9915C15.4311 14.3157 15.5254 14.761 14.9585 14.99C14.9216 15.0049 13.9494 14.9519 13.9675 14.99C14.28 15.6377 15.5566 16.4019 15.9495 16.9868C17.65 16.4238 19.1245 15.3901 20.9047 13.9915C21.3385 9.18799 20.2818 4.71045 17.9316 1.01147ZM7.03024 11.9946C6.00482 11.9946 5.04819 10.2363 5.04819 8.99927C5.04819 7.76221 5.98843 7.0022 7.03024 7.0022C8.08023 7.0022 9.02866 7.771 9.0123 8.99927C9.0123 10.2363 8.07202 11.9946 7.03024 11.9946ZM13.9675 11.9946C12.942 11.9946 11.9854 10.2363 11.9854 8.99927C11.9854 7.76221 12.9257 7.0022 13.9675 7.0022C15.0175 7.0022 15.9659 7.771 15.9495 8.99927C15.9495 10.2363 15.0175 11.9946 13.9675 11.9946Z" fill-rule="evenodd" fill="#FFFFFF"/>
</svg>
