<svg width="18.000000" height="15.000000" viewBox="0 0 18 15" fill="none" xmlns="http://www.w3.org/2000/svg" xmlns:xlink="http://www.w3.org/1999/xlink">
	<desc>
			Created with Pixso.
	</desc>
	<defs/>
	<path id="Vector" d="M17.9771 2.21069C17.517 2.80811 16.6265 3.75342 15.9958 4.17822C16.0009 7.01245 15.0941 10.0559 13.024 12.0479C10.9537 14.0396 8.00858 15.0383 5.099 14.9988C3.41687 15.0044 1.65485 14.7393 0.145905 14.0151C0.145905 13.8906 0.0180664 13.0315 0.145905 13.0315C1.79938 12.9783 3.78906 13.032 5.099 12.0479C3.60236 12.0183 2.74686 10.4238 2.12714 9.09668C2.582 9.14111 2.67889 9.22144 3.11774 9.09668C1.46558 8.7627 0.323547 7.78003 0.145905 6.14551C0.139587 6.06714 0.0804443 5.20801 0.145905 5.16187C0.589264 5.35229 1.64258 6.1416 2.12714 6.14551C0.679443 5.22046 -0.404846 2.82593 0.145905 1.22705C0.202728 1.07153 0.970398 1.25903 1.13651 1.22705C3.09009 3.25122 6.21259 5.02783 9.06146 5.16187C8.98856 4.87842 8.06888 4.47046 8.07086 4.17822C8.0975 2.64575 9.57739 0.802002 11.0427 0.243408C12.5079 -0.31543 13.9174 0.119385 15.0052 1.22705C15.7466 1.0896 16.317 0.583008 16.9864 0.243408C17.0355 0.213379 17.928 0.213379 17.9771 0.243408C18.0077 0.291016 18.0077 1.1792 17.9771 1.22705C17.6528 1.94971 16.6906 1.80566 15.9958 2.21069C16.6042 2.14209 17.4028 2.41846 17.9771 2.21069Z" fill-rule="evenodd" fill="#FFFFFF"/>
</svg>
